<svg xmlns="http://www.w3.org/2000/svg" id="Calque_2" data-name="Calque 2" viewBox="0 0 241.95 241.94"><defs><style>      .cls-1 {        fill: #fff;      }      .cls-2, .cls-3 {        fill: none;        stroke: #fff;        stroke-miterlimit: 10;      }      .cls-4 {        fill: #060300;      }      .cls-5 {        fill: #e7000e;      }      .cls-6 {        fill: #0a0300;      }      .cls-7 {        fill: #e92f23;      }      .cls-8 {        fill: #6f7070;      }      .cls-9 {        fill: #faba2a;      }      .cls-3 {        stroke-width: .25px;      }      .cls-10 {        fill: #12120d;      }      .cls-11 {        fill: #595959;      }      .cls-12 {        fill: #fcfcfc;      }    </style></defs><g id="Calque_1-2" data-name="Calque 1"><g><path class="cls-4" d="M241.45,120.97c0,66.54-53.94,120.47-120.47,120.47S.5,187.51,.5,120.97,54.44,.5,120.97,.5s120.47,53.94,120.47,120.47"></path><circle class="cls-2" cx="120.97" cy="120.97" r="120.47"></circle><path class="cls-1" d="M225.85,120.97c0,57.93-46.95,104.89-104.88,104.89-27.22,0-52.03-10.37-70.67-27.38-2.13-1.95-4.18-3.98-6.14-6.1-6.08-6.53-11.33-13.84-15.6-21.76-.91-1.69-1.78-3.42-2.59-5.17-1.93-4.09-3.59-8.33-4.97-12.69-.73-2.29-1.39-4.62-1.95-6.98-.07-.24-.12-.48-.17-.72-1.24-5.25-2.08-10.64-2.49-16.16-.2-2.62-.3-5.26-.3-7.93,0-57.92,46.96-104.88,104.88-104.88s104.88,46.96,104.88,104.88"></path><path class="cls-4" d="M224.44,120.97c0,57.15-46.33,103.47-103.47,103.47-18.61,0-36.07-4.91-51.15-13.51l-1.64-.96c-5.76-3.41-11.16-7.38-16.13-11.82-.5-.45-.99-.9-1.48-1.36-.43-.4-.86-.8-1.28-1.21-.75-.72-1.49-1.45-2.21-2.19-1.21-1.23-2.39-2.5-3.54-3.79-2.82-3.18-5.44-6.53-7.84-10.03-.39-.56-.77-1.12-1.14-1.69-1.78-2.69-3.43-5.47-4.95-8.33v-.02c-.7-1.27-1.35-2.56-1.97-3.86-.05-.1-.1-.21-.15-.31-.26-.53-.51-1.08-.75-1.62-.05-.11-.1-.21-.15-.32-.62-1.38-1.21-2.78-1.78-4.19-.3-.77-.6-1.55-.88-2.34-.27-.69-.51-1.38-.75-2.08-.05-.12-.09-.25-.13-.37-.27-.77-.53-1.55-.77-2.33-.08-.25-.16-.5-.23-.76-.19-.59-.36-1.19-.53-1.79-.05-.17-.1-.34-.14-.51-.17-.59-.33-1.18-.49-1.77-.09-.36-.18-.71-.27-1.07l-.07-.28-.88-3.84c-.1-.49-.2-.98-.29-1.47-.03-.15-.06-.3-.08-.46-.26-1.32-.48-2.66-.68-4-.15-1.02-.29-2.04-.41-3.06-.2-1.73-.36-3.48-.47-5.24,0-.05-.01-.1-.01-.15-.12-1.89-.2-3.8-.21-5.71v-.4c0-.21,0-.42,0-.63,0-.33,0-.66,0-.99,.07-8.19,1.1-16.15,2.98-23.78,.16-.66,.32-1.31,.5-1.96C32.78,50.06,73.07,17.51,120.97,17.51c57.14,0,103.47,46.32,103.47,103.46"></path><g id="Logo_r&#xE9;seau" data-name="Logo r&#xE9;seau"><path class="cls-11" d="M28.34,89.98c-.24,1.14-.76,2.16-1.12,3.19,2.4-6.22,7.88-13.12,18.79-19.92,18.41-11.48,41.82-23.21,113.17-29.84,11.62-1.08,12.75-3.42,11.19-4.36-23.83-13.85-88.48-9.62-116.09,12.06,0,0-20.45,13.15-25.94,38.86"></path><path class="cls-11" d="M209.78,77.42c-19.2-18.87-104.75-10.84-153.61,15.38-7.46,4-14.08,8.41-19.46,13.23-2.9,3.11-5.19,5.96-6.89,8.93-2.23,3.9-3.42,8.02-3.39,13.36,.35,3.92,.63,6.92,1,9.67,.39,2.38,.93,5,1.83,9.32,1.07,3.64,1.75,5.94,2.3,7.67,.63,1.71,1.49,3.92,2.84,7.38,.7,1.45,1.52,3.15,2.36,4.84,.86,1.68,1.73,3.35,2.48,4.79-2.39-4.55-4.08-11.47,0-19.9,2.21-4.57,6.14-9.59,12.56-14.92,8.58-7.12,21.66-14.8,41.15-22.7,20.85-8.45,49.03-17.16,86.94-25.73,18.34-4.14,31.84-6.74,29.89-11.3"></path><path class="cls-11" d="M129.1,127.37c-19.54,5.94-38.84,14.1-53.92,23.8-7.33,4.71-13.69,9.77-18.55,15.12-.49,.65-.91,1.28-1.33,1.91-5.33,7.87-6.15,13.86-4,19.14,1.5,3.69,4.42,7.03,8.27,10.44,2.49,1.92,5.94,4.32,8.53,6.11,6.02,3.71,7.32,4.31,14.55,7.67,7.25,3,11.09,3.96,16.9,5.42,8.59,1.82,16.15,2.49,25.26,2.25,1.35-.08,12.63-.64,14.52-1.69-13.72,3.22-58.15-1.35-57.57-18.27,.17-4.89,4.11-10.82,13.66-17.89,9.88-7.32,25.76-15.85,49.66-25.74,10.28-4.25,22.03-8.75,35.45-13.51,3.12-1.11,6.32-2.23,9.62-3.36,0,0,28.99-9.4,27.34-13.37-6.52-13.08-47.91-10.33-88.37,1.96"></path></g><g id="Bataillon_sarine" data-name="Bataillon sarine"><path class="cls-1" d="M83.41,14.26c.65,.12,1.08,.5,1.33,1.17,.51,1.35-.38,2.28-1.71,2.79l-2.48,.94c-.11,.04-.2,0-.24-.11l-2.35-6.19c-.04-.11,0-.2,.11-.24l2.39-.91c1.52-.58,2.58-.44,3.1,.94,.23,.61,.15,1.1-.19,1.53-.05,.05-.03,.09,.04,.09m-3.16-.67l.33,.88s.06,.07,.1,.05l.74-.28c.45-.17,.62-.44,.49-.77-.13-.34-.43-.43-.88-.26l-.74,.28s-.07,.06-.05,.1m2.66,2.32c-.13-.35-.42-.44-.85-.28l-.83,.32s-.06,.06-.05,.1l.35,.93s.06,.06,.1,.05l.82-.31c.44-.17,.59-.44,.45-.8"></path><path class="cls-1" d="M89.82,15.73l-.41-.63s-.07-.05-.11-.04l-1.98,.63s-.07,.05-.06,.09l.03,.75c0,.11-.05,.18-.15,.22l-1.55,.49c-.12,.04-.22-.02-.22-.16v-6.94c0-.1,.04-.18,.15-.22l1.97-.62c.1-.03,.19,0,.25,.09l3.97,5.69c.08,.12,.04,.22-.09,.26l-1.54,.49c-.11,.03-.19,0-.25-.09m-2.53-1.54l1.18-.37s.07-.06,.04-.11l-1.3-2.01c-.04-.06-.1-.04-.1,.03l.08,2.4s.05,.08,.09,.06"></path><path class="cls-1" d="M94.86,7.48l.31,1.2c.03,.12-.02,.2-.14,.23l-1.56,.4s-.07,.05-.06,.1l1.28,4.94c.03,.12-.02,.2-.14,.23l-1.45,.38c-.12,.03-.2-.02-.23-.14l-1.28-4.95s-.05-.07-.1-.06l-1.51,.39c-.12,.03-.2-.02-.23-.14l-.31-1.2c-.03-.12,.02-.2,.14-.23l5.04-1.31c.12-.03,.2,.02,.23,.14"></path><path class="cls-1" d="M100.75,13.05l-.34-.67s-.06-.06-.1-.05l-2.04,.41s-.07,.05-.07,.09l-.05,.75c0,.11-.07,.18-.17,.2l-1.59,.32c-.13,.03-.21-.04-.2-.18l.72-6.91c0-.1,.07-.18,.17-.2l2.02-.41c.11-.02,.19,.02,.24,.11l3.36,6.08c.07,.13,.01,.22-.11,.25l-1.59,.32c-.11,.02-.19-.01-.24-.11m-2.36-1.8l1.22-.25s.07-.05,.05-.1l-1.09-2.14c-.03-.07-.09-.05-.1,.02l-.17,2.39c0,.05,.04,.08,.09,.07"></path><path class="cls-1" d="M103.25,12.58l-1.02-6.54c-.02-.12,.04-.2,.16-.22l1.48-.23c.12-.02,.2,.04,.22,.16l1.02,6.54c.02,.12-.04,.2-.16,.22l-1.48,.23c-.12,.02-.2-.04-.22-.16"></path><path class="cls-1" d="M105.82,12.17l-.77-6.58c-.01-.12,.05-.2,.17-.21l1.49-.17c.12-.01,.2,.05,.21,.17l.59,5.09s.04,.08,.09,.07l3-.35c.12-.01,.2,.05,.21,.17l.14,1.22c.01,.12-.05,.2-.17,.21l-4.76,.56c-.12,.01-.2-.05-.21-.17"></path><path class="cls-1" d="M111.46,11.53l-.41-6.61c0-.12,.06-.19,.18-.2l1.5-.09c.12,0,.19,.06,.2,.18l.32,5.11c0,.05,.03,.08,.09,.08l3.01-.19c.12,0,.19,.06,.2,.18l.08,1.23c0,.12-.06,.19-.18,.2l-4.78,.3c-.12,0-.19-.06-.2-.18"></path><path class="cls-1" d="M116.89,8.82v-1.88c-.03-1.58,1.09-2.65,2.77-2.66,1.69-.01,2.82,1.04,2.83,2.62v1.88c.03,1.61-1.09,2.69-2.78,2.7-1.68,.01-2.81-1.05-2.82-2.66m3.73,.03v-1.96c-.02-.61-.39-1.01-.95-1-.55,0-.92,.41-.91,1.02l.02,1.96c0,.61,.38,1.01,.93,1,.56,0,.93-.41,.92-1.02"></path><path class="cls-1" d="M123.13,11.16l.35-6.61c0-.12,.08-.19,.2-.18l1.44,.07c.1,0,.18,.05,.22,.14l1.8,3.41c.04,.06,.1,.06,.1-.02l.16-3.22c0-.13,.08-.19,.2-.18l1.5,.08c.12,0,.19,.08,.18,.2l-.35,6.61c0,.12-.08,.19-.2,.18l-1.44-.08c-.1,0-.18-.05-.22-.14l-1.8-3.47c-.04-.07-.1-.06-.1,.01l-.15,3.29c0,.13-.08,.19-.2,.18l-1.5-.08c-.12,0-.19-.08-.18-.2"></path><path class="cls-1" d="M131.72,9.75v-.1c.03-.12,.11-.18,.22-.16l1.46,.19c.12,.02,.18,.06,.17,.12v.11c-.06,.34,.29,.76,.91,.84,.55,.07,.72-.22,.75-.41,.05-.38-.43-.52-1.12-.83-.89-.4-2.21-1.1-2.02-2.53,.17-1.28,1.38-1.96,2.86-1.76,1.56,.2,2.64,1.28,2.46,2.66v.05c-.02,.12-.1,.18-.22,.16l-1.46-.19c-.12-.02-.18-.06-.18-.1v-.08c.06-.36-.23-.83-.88-.91-.43-.06-.71,.1-.75,.4-.05,.36,.3,.55,1.29,1.02,.66,.31,2.08,.83,1.89,2.32-.17,1.3-1.37,2-2.97,1.79-1.63-.21-2.59-1.22-2.42-2.57"></path><path class="cls-1" d="M141.85,13.37l-.06-.75s-.04-.08-.08-.08l-2.04-.4s-.08,.01-.1,.05l-.33,.67c-.05,.1-.13,.14-.24,.12l-1.59-.31c-.13-.02-.18-.12-.12-.25l3.29-6.11c.05-.09,.13-.14,.24-.12l2.02,.39c.11,.02,.17,.09,.18,.2l.79,6.9c.01,.14-.07,.21-.2,.18l-1.59-.31c-.11-.02-.17-.08-.18-.2m-1.49-2.56l1.22,.23s.09-.03,.08-.07l-.19-2.39c0-.07-.06-.08-.1-.02l-1.07,2.15s0,.09,.05,.1"></path><path class="cls-1" d="M147.71,14.78l-.42-2.68c0-.05-.04-.07-.08-.08l-.35-.09s-.08,0-.1,.06l-.6,2.35c-.03,.12-.12,.17-.23,.14l-1.45-.37c-.12-.03-.17-.12-.14-.23l1.65-6.41c.03-.12,.12-.17,.23-.14l2.9,.75c1.33,.34,1.99,1.43,1.65,2.73-.22,.85-.82,1.39-1.62,1.51-.05,0-.07,.04-.06,.09l.54,2.8c.02,.15-.05,.21-.19,.18l-1.54-.4c-.1-.02-.16-.08-.18-.19m-.28-5.41l-.28,1.08s0,.08,.06,.1l.88,.23c.42,.11,.76-.06,.86-.43,.1-.37-.12-.69-.54-.8l-.88-.23s-.09,0-.1,.06"></path><path class="cls-1" d="M150.22,15.42l1.91-6.34c.04-.11,.12-.16,.24-.13l1.44,.43c.12,.04,.16,.12,.13,.24l-1.9,6.34c-.04,.11-.12,.16-.24,.13l-1.44-.43c-.12-.03-.16-.12-.13-.24"></path><path class="cls-1" d="M152.72,16.15l2.17-6.25c.04-.11,.13-.16,.24-.12l1.36,.47c.1,.03,.16,.1,.18,.2l.77,3.77c.02,.07,.08,.08,.1,0l1.05-3.04c.04-.12,.13-.16,.24-.12l1.42,.49c.11,.04,.16,.13,.12,.24l-2.17,6.25c-.04,.11-.13,.16-.24,.12l-1.36-.47c-.1-.03-.16-.1-.18-.2l-.76-3.83c-.02-.08-.08-.09-.1-.01l-1.06,3.11c-.04,.12-.13,.16-.24,.12l-1.42-.49c-.11-.04-.16-.13-.12-.24"></path><path class="cls-1" d="M165.34,15.37l-2.7-1.11s-.09,0-.1,.04l-.34,.81s0,.09,.04,.1l1.65,.68c.11,.05,.15,.14,.1,.25l-.47,1.13c-.05,.11-.14,.15-.25,.1l-1.65-.68s-.09,0-.1,.04l-.37,.91s0,.09,.04,.1l2.7,1.11c.11,.05,.15,.14,.1,.25l-.47,1.14c-.05,.11-.14,.15-.25,.1l-4.33-1.79c-.11-.05-.15-.14-.1-.25l2.52-6.12c.05-.11,.14-.15,.25-.1l4.34,1.79c.11,.05,.15,.14,.1,.25l-.47,1.14c-.05,.11-.14,.15-.25,.1"></path></g><g id="Moncor"><path class="cls-1" d="M93.64,167.84h2.82c.07,0,.12,.02,.17,.07s.07,.1,.07,.17v13.52c0,.07-.02,.12-.07,.17-.05,.05-.1,.07-.17,.07h-2.84c-.07,0-.12-.02-.17-.07-.05-.05-.07-.1-.07-.17v-8.04c0-.05-.01-.08-.04-.08-.03,0-.05,.02-.08,.06l-1.72,2.76c-.05,.11-.15,.16-.28,.16h-1.42c-.13,0-.23-.05-.28-.16l-1.74-2.78s-.05-.06-.08-.06c-.03,0-.04,.03-.04,.08v8.06c0,.07-.02,.12-.07,.17-.05,.05-.1,.07-.17,.07h-2.84c-.07,0-.12-.02-.17-.07-.05-.05-.07-.1-.07-.17v-13.52c0-.07,.02-.12,.07-.17,.05-.05,.1-.07,.17-.07h2.82c.12,0,.21,.05,.28,.16l2.78,4.36c.04,.08,.08,.08,.12,0l2.74-4.36c.05-.11,.15-.16,.28-.16"></path><path class="cls-1" d="M101.03,181.41c-.82-.43-1.46-1.04-1.91-1.83-.45-.79-.68-1.7-.68-2.74v-4c0-1.01,.23-1.91,.68-2.69,.45-.78,1.09-1.39,1.91-1.82,.82-.43,1.77-.65,2.85-.65s2.03,.22,2.86,.65c.83,.43,1.46,1.04,1.92,1.82,.45,.78,.68,1.68,.68,2.69v4c0,1.04-.23,1.95-.68,2.74-.45,.79-1.09,1.4-1.92,1.83-.83,.43-1.78,.65-2.86,.65s-2.03-.22-2.85-.65m4.4-2.81c.39-.41,.59-.97,.59-1.66v-4.14c0-.68-.2-1.23-.59-1.65-.39-.42-.91-.63-1.55-.63s-1.14,.21-1.53,.63c-.39,.42-.59,.97-.59,1.65v4.14c0,.69,.2,1.25,.59,1.66,.39,.41,.9,.62,1.53,.62s1.16-.21,1.55-.62"></path><path class="cls-1" d="M119.09,167.91s.1-.07,.17-.07h2.84c.07,0,.12,.02,.17,.07,.05,.05,.07,.1,.07,.17v13.52c0,.07-.02,.12-.07,.17-.05,.05-.1,.07-.17,.07h-2.72c-.13,0-.23-.05-.28-.16l-4.6-7.64s-.05-.06-.08-.05c-.03,0-.04,.04-.04,.09l.02,7.52c0,.07-.02,.12-.07,.17s-.1,.07-.17,.07h-2.84c-.07,0-.12-.02-.17-.07-.05-.05-.07-.1-.07-.17v-13.52c0-.07,.02-.12,.07-.17,.05-.05,.1-.07,.17-.07h2.74c.13,0,.23,.05,.28,.16l4.58,7.62s.05,.06,.08,.05c.03,0,.04-.04,.04-.09l-.02-7.5c0-.07,.02-.12,.07-.17"></path><path class="cls-1" d="M126.65,181.38c-.81-.41-1.43-1-1.88-1.76-.45-.76-.67-1.64-.67-2.64v-4.32c0-.99,.22-1.86,.67-2.61,.45-.75,1.07-1.34,1.88-1.75,.81-.41,1.74-.62,2.81-.62s2,.2,2.81,.59c.81,.39,1.43,.95,1.88,1.66,.45,.71,.67,1.54,.67,2.47,0,.07-.02,.12-.07,.16-.05,.04-.1,.06-.17,.06l-2.84,.18c-.16,0-.24-.07-.24-.22,0-.63-.19-1.13-.56-1.5s-.87-.56-1.48-.56-1.11,.19-1.48,.57c-.37,.38-.56,.88-.56,1.49v4.54c0,.61,.19,1.11,.56,1.48,.37,.37,.87,.56,1.48,.56s1.11-.19,1.48-.56c.37-.37,.56-.87,.56-1.48,0-.15,.08-.22,.24-.22l2.84,.14c.07,0,.12,.02,.17,.06,.05,.04,.07,.09,.07,.14,0,.95-.22,1.78-.67,2.5-.45,.72-1.07,1.28-1.88,1.67-.81,.39-1.74,.59-2.81,.59s-2-.21-2.81-.62"></path><path class="cls-1" d="M138.87,181.41c-.82-.43-1.46-1.04-1.91-1.83-.45-.79-.68-1.7-.68-2.74v-4c0-1.01,.23-1.91,.68-2.69,.45-.78,1.09-1.39,1.91-1.82,.82-.43,1.77-.65,2.85-.65s2.03,.22,2.86,.65c.83,.43,1.47,1.04,1.92,1.82,.45,.78,.68,1.68,.68,2.69v4c0,1.04-.23,1.95-.68,2.74-.45,.79-1.09,1.4-1.92,1.83-.83,.43-1.78,.65-2.86,.65s-2.03-.22-2.85-.65m4.4-2.81c.39-.41,.59-.97,.59-1.66v-4.14c0-.68-.2-1.23-.59-1.65-.39-.42-.91-.63-1.55-.63s-1.14,.21-1.53,.63c-.39,.42-.59,.97-.59,1.65v4.14c0,.69,.2,1.25,.59,1.66,.39,.41,.9,.62,1.53,.62s1.16-.21,1.55-.62"></path><path class="cls-1" d="M156.14,181.66l-2.36-5.32c-.03-.05-.07-.08-.12-.08h-1.32c-.07,0-.1,.03-.1,.1v5.24c0,.07-.02,.12-.07,.17-.05,.05-.1,.07-.17,.07h-2.84c-.07,0-.12-.02-.17-.07-.05-.05-.07-.1-.07-.17v-13.52c0-.07,.02-.12,.07-.17,.05-.05,.1-.07,.17-.07h5.94c.88,0,1.65,.18,2.32,.54,.67,.36,1.18,.87,1.55,1.53,.37,.66,.55,1.42,.55,2.27,0,.89-.22,1.67-.66,2.32-.44,.65-1.05,1.13-1.84,1.42-.07,.03-.09,.07-.06,.14l2.64,5.5c.03,.05,.04,.09,.04,.12,0,.11-.07,.16-.22,.16h-3c-.13,0-.23-.06-.28-.18m-3.9-10.88v2.84c0,.07,.03,.1,.1,.1h2.22c.49,0,.89-.14,1.2-.41,.31-.27,.46-.64,.46-1.09s-.15-.84-.46-1.12c-.31-.28-.71-.42-1.2-.42h-2.22c-.07,0-.1,.03-.1,.1"></path></g><g id="Casque_et_flamme" data-name="Casque et flamme"><path class="cls-9" d="M115.65,77.83c-.13,.55-2.48,10.55-3.31,18.69-.13,1.22-3.32,10.43-3.93,9.3l-4.56,4.13c.45,.87,1.26,2.44,2.82,5.49,3.24,6.34,4.02,8,4.47,10.55,.38,2.18,.81,4.62-.22,7.49-1.74,4.82-6.16,6.95-7.27,7.48-2.47,1.19-5.54,1.19-5.54,1.19,0,0,1.81-1.23,3.48-3.69,1.62-2.39,1.83-4.85,1.91-5.79,.15-2.04-.23-3.61-.39-4.19-.46-1.69-1.31-3.37-3.19-5.55-2.05-2.39-3.54-3.3-7.56-6.37-4.54-3.46-6.81-5.19-7.76-6.37-3.08-3.78-4.88-8.41-5.04-8.82-.69-1.79-1.33-3.15-1.33-3.15,0,0-.41,3.25,.12,6.14,.14,.76,.63,3.17,2.05,6.19,1.17,2.46,2.38,4.12,3.6,5.76,2.51,3.38,3.14,3.39,5.91,6.9,2.72,3.43,4.08,5.19,4.36,7.63,.09,.78,.33,3.22-1.19,5.61-1.75,2.75-4.66,3.62-5.42,3.83-4.5,1.27-8.66-1.08-12.24-3.1-3.36-1.89-8.07-4.55-10.4-10.05-.11-.24-2.18-5.29-1-10.84,.42-1.99,.91-2.36,2.37-7.72,.3-1.08,.76-2.11,.87-2.36-.13,.71-1.68,9.16,2.64,14.45,1.97,2.41,5.48,4.41,7.34,3.43,2.24-1.17,1.03-5.51,.83-6.11-1.62-4.85-3.54-5.98-4.92-10.47-1.33-4.38-.81-7.87,1.44-13.69,1.52-3.94,4.69-6.77,4.69-6.77,0,0,2.96,13.27,11.64,19.76,.19,.15,4.24,2.39,4.5,2.53-.02-.2-.34-2.42-.58-4.19-.75-5.63-.72-10.28,1.03-17.21,.66-2.6,.94-2.91,6.92-16.35,5.99-13.45,7.44-17.04,7.61-22.55,.12-3.67,.2-6.52,.2-6.52,0,0,4.09,7.43,5.45,15.45,.53,3.12,1.74,10.71-.4,19.86"></path><rect class="cls-9" x="106.76" y="103.98" width="1.86" height="1.76"></rect><path class="cls-9" d="M108.41,104.86v.96c-.17-.31-.32-.63-.46-.96h.46Z"></path><path class="cls-9" d="M101.97,51.42s-.56,4.81-3.88,10.4c-1.08,1.82-1.24,1.6-6.15,7.8-4.8,6.06-5.39,7.19-5.86,8.39-1.46,3.74-1.28,7.01-1.18,8.63,.36,5.58,3.86,10.73,3.86,10.73,0,0-.55-4.63,1.15-11.16,1.21-4.63,2.6-4.85,6.52-13.44,1.44-3.15,2.67-5.87,3.76-9.62,1.83-6.31,1.78-11.73,1.78-11.73"></path><path class="cls-6" d="M102.29,76.94c3.42-1.48,4.54-2.45,8.64-4.01,3.28-1.25,4.28-1.58,4.28-1.58,7.53-1.76,6.82-2.07,10.9-2.7,2.22-.34,5.49-.72,9.45-.73,2.55,0,5.48,0,9.24,.7,3.47,.64,5.99,1.55,7.77,2.21,3.43,1.26,7.83,2.88,12.56,6.61,.59,.46,3.34,2.66,6.29,6.28,2.3,2.82,5.05,6.19,6.68,11.46,1.51,4.88,1.32,8.98,1.18,11.34-.26,4.66-1.38,8.27-2.01,10.02-1.5,4.22-4.56,10.27-6.53,14.16-.18,.35-.54,1.06-.84,2.06-.11,.37-.21,.79-.55,3.11-.22,1.54-.33,2.32-.32,2.78,.03,1.48,.25,2.51,.25,2.51,.2,.93,.4,1.27,.21,1.59-.35,.58-2.24,.43-2.89,.47-1.29,.07-1.6,.2-6.81,.29-2.24,.04-3.52,.03-5.78-.17-5.06-.46-9.36-.86-15.18-2.11-2.35-.51-11.89-3.49-14.22-4.16-.55-.16-1.11,.31-1.11,.31-.38,.15-1.28,.51-2.03,1.33-.56,.61-.33,.7-.76,1.1-.31,.3-.81,.61-3.81,.93-.15,.02-.59-.14-.96,.09-.2,.12-.3,.29-.34,.36,0,0-.4,.64-1.61,2.17-.5,.64-1.03,.95-1.83,1.43-1.1,.66-2.06,.92-2.93,1.15-.56,.15-1.24,.32-2.17,.39-1.49,.12-2.55-.12-3.44-.33-.88-.2-1.16-.36-1.38-.58-.25-.24-.34-.46-.79-1.56-.62-1.51-.6-1.46-.63-1.54-.11-.29-.4-1.08-.74-2.25-.72-2.48-.44-2.51-.85-3.09-.14-.19-.47-.62-.36-1,.04-.14,.17-.34,.36-.46,.1-.06,.12-.04,.35-.13,.26-.1,.39-.15,.45-.24,.12-.18-.03-.39-.09-.78-.03-.22,.02-.53,.14-1.14,.04-.21,.49-1.66,.42-1.35l-.22-.08c-.2-.11-.4,.12-.69,.16-.47,.06-.26,.12-.8,.28-.34,.1-.98,.18-1.24,.24-1.23,.29-1.76,.4-3.34,.31-.94-.06-.83-.26-1.91-.32-.67-.04-1.1,.02-1.31-.26-.12-.17,.04-.31,.07-1.09,0-.22,0-.35,0-.46-.01-.84,.27-1.9,.42-2.64,.26-1.24,.05-1.37,.35-2.41,.16-.56,.43-1.4,.8-2.29,.71-1.71,1.11-2.54,1.53-3.11,.79-1.08,2.27-2.59,2.68-2.8,.02-.01,.12-.06,.17-.16,.12-.21-.04-.5-.1-.64-.13-.3-.09-.78,0-1.75,.06-.68,.1-1.02,.22-1.41,.29-.88,.81-1.46,1.34-2.05,.4-.45,.75-.74,.85-.83,2.45-2.1,4.29-3.3,5.04-4.09,.18-.19,.09-.51,0-.87-.37-1.66-.27-2.52-.34-3.92,0-.1,.04-.26,.09-.6,.39-2.52,.59-3.78,.93-4.7,.71-1.93,1.06-2.9,1.37-3.46,.05-.09,.22-.4,.14-.73-.08-.32-.37-.5-.51-.58-.61-.39-1.06-1-1.66-1.4-2.38-1.61-6.11-6.99-6.47-7.51-.07-.11-.63-.93-.93-2.13-.11-.46-.45-1.79,.11-2.22,.15-.12,.39-.19,.6-.18,.25,0,.33,.11,.7,.24,.4,.14,.67,.24,.93,.15,.31-.12,.22-.37,.63-.66,.3-.21,.65-.27,.89-.32,.24-.04,.22-.01,.48-.06,.6-.12,.78-.32,.83-.37,.1-.12,.13-.24,.15-.25"></path><path class="cls-6" d="M99.32,76.52c3.6-1.56,4.78-2.57,9.09-4.21,3.45-1.31,4.5-1.66,4.5-1.66,7.92-1.85,7.17-2.18,11.46-2.84,2.33-.36,5.77-.76,9.94-.77,2.68,0,5.76,0,9.72,.74,3.65,.67,6.29,1.63,8.17,2.32,3.6,1.33,8.23,3.03,13.2,6.95,.62,.49,3.51,2.8,6.61,6.6,2.41,2.96,5.31,6.51,7.02,12.05,1.59,5.13,1.38,9.44,1.24,11.92-.28,4.9-1.46,8.69-2.11,10.53-1.57,4.44-4.79,10.79-6.87,14.89-.19,.37-.57,1.11-.88,2.17-.12,.39-.23,.83-.57,3.27-.23,1.62-.35,2.44-.34,2.93,.03,1.56,.27,2.64,.27,2.64,.21,.97,.42,1.33,.22,1.67-.37,.61-2.36,.45-3.04,.49-1.35,.08-1.68,.22-7.16,.31-2.36,.04-3.7,.04-6.08-.18-5.32-.49-9.84-.9-15.95-2.22-2.47-.53-12.5-3.67-14.95-4.37-.58-.17-1.17,.33-1.17,.33-.4,.15-1.34,.53-2.14,1.4-.59,.64-.35,.73-.79,1.16-.33,.32-.86,.64-4.01,.98-.16,.02-.62-.14-1.01,.1-.21,.13-.31,.3-.36,.38,0,0-.42,.68-1.69,2.28-.53,.67-1.08,1-1.93,1.5-1.16,.69-2.17,.97-3.08,1.21-.59,.15-1.31,.34-2.28,.42-1.57,.12-2.68-.13-3.62-.35-.92-.21-1.22-.38-1.45-.61-.26-.25-.36-.48-.83-1.64-.66-1.59-.64-1.53-.67-1.62-.11-.3-.42-1.14-.78-2.36-.75-2.61-.46-2.64-.89-3.25-.15-.21-.5-.65-.38-1.05,.04-.14,.17-.36,.38-.49,.1-.06,.13-.04,.36-.14,.27-.11,.41-.16,.47-.25,.13-.19-.04-.41-.1-.82-.04-.23,.02-.55,.15-1.19,.04-.22,.52-1.74,.44-1.42l-.23-.08c-.21-.12-.43,.13-.72,.16-.5,.06-.27,.12-.84,.29-.36,.1-1.03,.19-1.31,.25-1.29,.31-1.85,.43-3.51,.32-.99-.06-.88-.27-2.01-.34-.7-.04-1.16,.02-1.38-.27-.13-.18,.04-.33,.07-1.14,0-.23,0-.37,0-.48-.01-.89,.28-2,.44-2.78,.27-1.3,.06-1.44,.37-2.54,.17-.59,.45-1.47,.84-2.41,.74-1.8,1.17-2.67,1.6-3.27,.83-1.14,2.39-2.72,2.82-2.94,.03-.01,.12-.06,.18-.16,.12-.22-.04-.53-.1-.67-.14-.31-.09-.82,0-1.84,.07-.72,.1-1.07,.23-1.49,.3-.93,.85-1.54,1.41-2.15,.43-.47,.79-.78,.89-.87,2.58-2.2,4.51-3.47,5.3-4.3,.18-.2,.09-.53,0-.91-.38-1.74-.28-2.65-.36-4.12,0-.1,.04-.28,.09-.63,.41-2.65,.62-3.98,.98-4.94,.75-2.03,1.12-3.04,1.44-3.64,.05-.1,.23-.42,.14-.76-.09-.34-.39-.52-.53-.61-.64-.41-1.12-1.05-1.75-1.47-2.5-1.69-6.42-7.35-6.8-7.9-.08-.11-.66-.97-.98-2.24-.12-.48-.48-1.88,.11-2.34,.16-.12,.41-.2,.64-.19,.27,0,.35,.12,.73,.26,.42,.15,.71,.26,.98,.15,.33-.12,.23-.39,.66-.69,.32-.22,.68-.29,.94-.34,.25-.05,.23-.01,.5-.07,.63-.13,.82-.33,.88-.39,.11-.12,.14-.26,.16-.26"></path><path class="cls-2" d="M99.32,76.52c3.6-1.56,4.78-2.57,9.09-4.21,3.45-1.31,4.5-1.66,4.5-1.66,7.92-1.85,7.17-2.18,11.46-2.84,2.33-.36,5.77-.76,9.94-.77,2.68,0,5.76,0,9.72,.74,3.65,.67,6.29,1.63,8.17,2.32,3.6,1.33,8.23,3.03,13.2,6.95,.62,.49,3.51,2.8,6.61,6.6,2.41,2.96,5.31,6.51,7.02,12.05,1.59,5.13,1.38,9.44,1.24,11.92-.28,4.9-1.46,8.69-2.11,10.53-1.57,4.44-4.79,10.79-6.87,14.89-.19,.37-.57,1.11-.88,2.17-.12,.39-.23,.83-.57,3.27-.23,1.62-.35,2.44-.34,2.93,.03,1.56,.27,2.64,.27,2.64,.21,.97,.42,1.33,.22,1.67-.37,.61-2.36,.45-3.04,.49-1.35,.08-1.68,.22-7.16,.31-2.36,.04-3.7,.04-6.08-.18-5.32-.49-9.84-.9-15.95-2.22-2.47-.53-12.5-3.67-14.95-4.37-.58-.17-1.17,.33-1.17,.33-.4,.15-1.34,.53-2.14,1.4-.59,.64-.35,.73-.79,1.16-.33,.32-.86,.64-4.01,.98-.16,.02-.62-.14-1.01,.1-.21,.13-.31,.3-.36,.38,0,0-.42,.68-1.69,2.28-.53,.67-1.08,1-1.93,1.5-1.16,.69-2.17,.97-3.08,1.21-.59,.15-1.31,.34-2.28,.42-1.57,.12-2.68-.13-3.62-.35-.92-.21-1.22-.38-1.45-.61-.26-.25-.36-.48-.83-1.64-.66-1.59-.64-1.53-.67-1.62-.11-.3-.42-1.14-.78-2.36-.75-2.61-.46-2.64-.89-3.25-.15-.21-.5-.65-.38-1.05,.04-.14,.17-.36,.38-.49,.1-.06,.13-.04,.36-.14,.27-.11,.41-.16,.47-.25,.13-.19-.04-.41-.1-.82-.04-.23,.02-.55,.15-1.19,.04-.22,.52-1.74,.44-1.42l-.23-.08c-.21-.12-.43,.13-.72,.16-.5,.06-.27,.12-.84,.29-.36,.1-1.03,.19-1.31,.25-1.29,.31-1.85,.43-3.51,.32-.99-.06-.88-.27-2.01-.34-.7-.04-1.16,.02-1.38-.27-.13-.18,.04-.33,.07-1.14,0-.23,0-.37,0-.48-.01-.89,.28-2,.44-2.78,.27-1.3,.06-1.44,.37-2.54,.17-.59,.45-1.47,.84-2.41,.74-1.8,1.17-2.67,1.6-3.27,.83-1.14,2.39-2.72,2.82-2.94,.03-.01,.12-.06,.18-.16,.12-.22-.04-.53-.1-.67-.14-.31-.09-.82,0-1.84,.07-.72,.1-1.07,.23-1.49,.3-.93,.85-1.54,1.41-2.15,.43-.47,.79-.78,.89-.87,2.58-2.2,4.51-3.47,5.3-4.3,.18-.2,.09-.53,0-.91-.38-1.74-.28-2.65-.36-4.12,0-.1,.04-.28,.09-.63,.41-2.65,.62-3.98,.98-4.94,.75-2.03,1.12-3.04,1.44-3.64,.05-.1,.23-.42,.14-.76-.09-.34-.39-.52-.53-.61-.64-.41-1.12-1.05-1.75-1.47-2.5-1.69-6.42-7.35-6.8-7.9-.08-.11-.66-.97-.98-2.24-.12-.48-.48-1.88,.11-2.34,.16-.12,.41-.2,.64-.19,.27,0,.35,.12,.73,.26,.42,.15,.71,.26,.98,.15,.33-.12,.23-.39,.66-.69,.32-.22,.68-.29,.94-.34,.25-.05,.23-.01,.5-.07,.63-.13,.82-.33,.88-.39,.11-.12,.14-.26,.16-.26Z"></path><path class="cls-7" d="M177.2,113.28c-.88,3.79-2.06,6.56-2.76,8.19-.17,.39-.87,2.01-1.95,4.06-1.33,2.52-1.99,3.79-2.4,4.22-.33,.35-1.41,2.65-1.53,2.99-.19,.53-.49,.87-.67,1.06-.3,.33-.62,.67-1.14,.81-.14,.04-.54,.14-.95-.05-.09-.04-.46-.21-.46-.46-.01-.28,.47-.46,.52-.56,.42-.71,1.66-1.14,3.13-4.36,1.97-4.31,2.63-5.62,2.71-6.02,.04-.18-.09-.31-.16-.44-1.79-3.41-5.49-7.84-6.34-8.75-1.83-1.95-3.28-3.35-4.45-4.41-1.41-1.29-2.12-1.94-3.2-2.74-.76-.56-2.87-2.06-5.96-3.35-.88-.37-2.23-.93-4.07-1.36-.62-.15-1.22-.26-1.79-.35,2.24,.9,3.65,3.28,3.28,5.81-.43,2.94-3.11,4.96-5.99,4.51-2.87-.44-4.85-3.19-4.42-6.12,.33-2.28,2.02-4,4.09-4.45-1.06-.02-2,.02-2.84,.06-4.51,.23-3.82,.4-7.48,1.26-.65,.15-3.75,1.29-3.75,1.29,0,0,.03,.81,.06,.95,.19,.96,.39,1.55,.86,2.17,.13,.17,.37,.09,.98-.03,1.11-.21,1.94-.47,2.13-.54,3.73-1.21,3.02-.59,3.94-1.03,.11-.05,.31-.16,.45-.07,.37,.24-.4,1.43-.29,2.56,.18,1.84,2.31,4.01,3.67,4.38,.26,.07-.48,.33-.48,1.31,0,1.62-.09,3.42-.09,3.42,0,0-1.16-.72-1.47-1.18-.54-.78-.72-1.05-1.37-1.3-.15-.06-.17-.18-.31-.06-.21,.17-.34,.5,.06,1.76,.18,.56,.21,.65,.1,.68-.72,.27-1.62,.86-2.52,1.26-1.5,.65-2.62,1.09-4.2,2.23-.92,.66-2.85,2.09-3.93,4.65-.39,.92-.83,1.97-.62,3.29,.24,1.49,1.2,2.45,2.17,3.4,1.37,1.33,2.74,2.09,4.13,2.74,3.14,1.47,5.77,2.13,6.77,2.38,4.87,1.19,8.72,1.77,9.6,1.9,8.18,1.21,12.35,1.45,16.48,1.69-.51-.48-2.28-1.59-3.21-2.96-4.22-6.21-4.99-9.1-6.48-14.67-.02-.05-2.46-1.2-2.9-1.37-5.16-1.91-7.74-2.14-7.74-2.14,.03-.66,.06-2.23-.05-2.81-.17-.89-.92-3.43-.92-3.43,0,0,3.46,.25,5.13-1.46,1.4-1.44,1.78-2.05,2.23-4.39,.04-.2,.23-.38,.99-.04,4.33,1.9,6.32,2.73,6.81,3.1,.77,.58,1.68,1.44,1.76,1.84,.38,1.86,.22,2.76,.23,5.13,0,.81,.23,1.85,.28,3.16,0,.19-.43,.27-.69,.34-1.39,.35-1.32,.43-2.71,1.13-.82,.42-.77,.38-.85,.58-.16,.45,.32,2.49,2.72,6.34,1.37,2.2,2.06,3.31,2.95,4.16,.94,.9,2.27,1.89,3.3,2.66,1.04,.77,.99,.62,1.37,.99,.28,.27,.56,.54,.77,.53,.32-.01,.28-1,.5-1.02,.1,0,.18,.17,.2,.22,.11,.22,.06,.44,0,.65-.1,.42-.15,.63-.25,.89-.37,.99,.35,2.47,.42,3.6,0,.07,.01,.23-.08,.35-.16,.23-.53,.2-.64,.19-1.07-.06-2.14,.36-3.22,.31-2.51-.13-1.2,.23-7.67-.09-3.41-.17-5.11-.26-7.49-.52-2.64-.3-4.66-.64-6.4-.95-1.84-.32-3.66-.64-6.05-1.21-.45-.11-3.21-.77-6.74-2-2.26-.79-3.02-1.17-3.79-1.78,0,0-2.84-1.81-2.9-3.33,0-.05,0-.21,.09-.29,.15-.12,.46,.06,.5,.08,.27,.16,.34,.37,.46,.35,.11-.02,.19-.2,.17-.25-.62-1.21-.83-2.71-.83-2.71-.17-1.88-.3-4.74,.41-8.08,.41-1.9,1.44-3.55,1.79-6.26,0,0,.41-1.49,.45-3.51,.03-1.7-.32-3.85-.13-5.17l.06-.4s.12-.03,.22-.02c.02,0,.03,0,.04,.01,.1,.03,.14,.11,.2,.19,.22,.35,.22,.26,.35,.49,.23,.41,.32,.84,.33,.92,.58,2.92,.3,5.51,.3,5.51-.12,1.14-.18,1.71-.25,2,0,0-.29,1.24-.2,2,0,.05,.03,.15,.05,.32,0,.04,0,.05,0,.05,.06,0,.44-.84,.62-1.37,.3-.86,.36-1.57,.42-2.52,.09-1.7,.14-2.55,.11-3.76-.06-2.28-.15-3.21-.49-4.35-.35-1.14-.74-1.77-.41-2.23,.34-.46,1.41-1.01,3.3-1.5,3.3-.84,2.51-.93,4.59-1.36,.68-.14,3.6-.72,7.55-.54,1.39,.07,3.07,.15,5.24,.69,2.29,.57,3.92,1.34,5.23,1.97,2.4,1.15,4.09,2.32,5.94,3.6,1.26,.87,1.91,1.32,2.78,2.08,.11,.1,.22,.19,.32,.29-.07-.73-.53-1.64-.69-1.93-.1-.19-.33-.83-.39-1.26,0-.1-.02-.23,.06-.3s.21-.02,.26,0c.43,.14,.91,.15,1.31,.35,1.29,.63,1.84,.58,3.51,1.55,.67,.39,1.65,.97,2.44,1.78,.57,.59,.53,.78,1.01,1.21,.02,.01,.29,.25,.44,.65,.1,.26,.06,.35,.03,.38-.07,.07-.09-.01-.14-.02-.36-.07-.66-.32-.84-.55-.02-.03-.29-.48-1.02-.9-.57-.33-1.45-1.23-2.88-1.88-.31-.14-.61-.24-1.21-.46-1.28-.46-1.45-.42-1.45-.35,.01,.22,.21,.76,.78,1.34,.44,.45,.39,.64,.64,.72,.13,.04,.31,.08,.37,.22,.04,.09,0,.17-.04,.36,0,0-.04,.24-.04,.5,0,.3,.1,.54,.19,.74,.1,.23,.13,.22,.22,.45,.05,.12,.11,.26,.14,.38t0,0c.24,.29,.47,.57,.71,.84,5.07,5.74,5.74,7.93,6.84,7.66,.47-.11,.57-.82,1.32-2.62,.58-1.38,1.01-2.4,1.04-3.86,0-.36,0-1.51-.46-2.88-.18-.51-.53-1.5-1.36-2.47-.47-.55-.99-.97-2.52-1.85-1.99-1.15-3.17-1.85-3.17-1.85-2.89-1.3-3.08-1.56-6.36-3.17-2.53-1.24-5.24-2.57-8.79-3.55-1.76-.49-3.35-.73-6.53-1.2-4.22-.63-6.07-.82-10.93-.87-3.78-.04-.58,0-5.87,.15-1.11,.03-2.1,.04-2.9,.77-.82,.75-.99,1.84-1.03,2.16-.12,.8,.09,1.56,.5,3.06,.34,1.26,.52,1.89,.69,2.18,.15,.26,.35,.53,.25,.71-.14,.25-.74,.2-1.14,.07-.5-.17-.51-.26-.67-.45-.77-.93-.08-.71-1.56-2.87-.47-.69-.5-.99-1.6-2.15-1.31-1.37-1.82-2.38-2.56-3.14-3.83-3.91-9.77-8.63-14.82-12.61,0,0-2.95-2-5.42-3.78-.04-.03-.42-.07-.42-.07-.91,.56-.19,1.62,.25,2.36,.06,.1-.02,.24-.1,.27-.12,.03-.37-.28-.4-.33-.2-.32-.38-.59-.48-.97-.15-.6-.19-.49-.26-.96-.03-.16-.09-.66,.19-1,.05-.07,.14-.18,.28-.2,.17-.03,.28,.08,.54,.24,.37,.22,.68,.3,.99,.38,.25,.07,.38,.1,.47,.04,.22-.15-.02-.58,.2-.87,.22-.29,.8-.27,1.19-.09,.31,.15,.36,.38,.68,.79,.39,.49,.73,.71,1.04,.97,1.11,.92,3.54,3.49,7.15,6.68,0,0,3.09,2.74,5.71,4.34,.56,.34,1.14,.63,1.3,.71,.8,.4,1.47,.74,2.4,.97,.88,.21,1.61,.24,1.84,.06,.03-.02,.18-.15,.35-.11,.04,0,.11,.02,.17,.08,.11,.11,.09,.29,.09,.31,0,.07-.04,.18-.35,.43-.27,.21-.49,.33-.54,.36-.28,.14-.41,.22-.59,.25-.25,.04-.51,.01-.95,.07-.05,0-.15,.02-.18,.09-.04,.08,.07,.2,.1,.25,.28,.32,.43,.74,.71,1.06,.54,.6,1.39,2.06,2.53,4,.49,.84,1.07,1.66,1.34,1.58,.06-.02,.07-.13,.05-.4-.09-.99-.52-1.72-.65-1.94-.53-.87-1-1.51-1.1-1.63-.95-1.26-1.29-1.96-1.29-1.96,.22,0,.57,0,.97-.13,.26-.09,.58-.19,.88-.49,.39-.39,.49-.85,.52-1.07,.04-.23,.1-.53-.07-.76-.09-.13-.21-.19-.25-.21-.6-.3-1.17-1.68-1.66-2.89,0,0-.46-1.12-.24-1.41,.02-.02,.06-.08,.13-.09,.1,0,.18,.16,.2,.22,.21,.43,.52,.8,.69,1.25,.37,.95,1.22,2.03,1.8,1.91,.09-.02,.09-.05,.29-.17,.56-.33,1.1-.34,1.31-.42,3.8-1.55,4.58-1.12,8.79-1.91l3.27-.03,1.62,.07c.81-.11,1.45-.06,1.9,.02,.3,.05,.77,.13,.79,.32,.02,.17-.32,.25-.71,.58-.14,.11-.96,.84-.8,1.52,.12,.54,.81,.84,1.27,.91,.62,.09,1.12-.18,1.53-.4,1.1-.61,1.68-1.55,2.57-1.87,.14-.05,.31-.09,.5-.06,.31,.05,.41,.25,.79,.53,.27,.21,.57,.44,.99,.54,.44,.12,.72,.01,.88,.23,.06,.09,.09,.2,.08,.4-.03,.52-.23,.79-.57,1.56,0,0-.15,.33-.35,1-.13,.42-.14,.53-.08,.58,.13,.13,.63-.18,.96-.47,0,0,.45-.63,.91-1.34,1.35-2.08,1.69-5.44,1.42-9.28-.08-1.07-.13-1.97-.27-3.04-.17-1.29-.84-2.94-.55-3.09,.04-.02,.13-.04,.22-.01,.17,.04,.27,.19,.3,.25,.79,1.23,1.1,4,1.1,4,.19,1.76,.18,1.37,.22,1.95,.12,1.43,.24,2.94,.03,4.54-.36,2.83-1.04,4.57-.89,4.96,.07,.19,.27,.1,.96,.16,.65,.06,.85,.17,2.21,.36l.12,.02c.41,.08,.39,.06,.89,.3,.15,.07,.26,.06,.26,.1,0,.05-.13,.09-.28,.17-.12,.07-.46,.25-.59,.55-.08,.18-.1,.44,0,.64,.13,.24,.4,.3,.75,.4,.83,.25,.59,.32,1.52,.61,.54,.16,.94,.22,1.51,.34,2.32,.46,2.43,.09,2.51-.02,.12-.17,.17-.43,.33-.44,.04,0,.1,.01,.3,.23,.2,.22,.2,.3,.34,.44,.06,.06,.28,.3,.58,.32,.2,0,.37-.1,.53-.23,.87-.71,1.17-1.83,1.17-1.83,0,0,.13-.5,.45-1.01,.06-.09,.15-.24,.27-.23,.12,0,.19,.17,.21,.21,.16,.35,.03,.75,0,.82-.27,.87,.05,3.04,1.18,3.77,.32,.21,.63,.25,.87,.28,1.25,.17,2.24-.68,2.64-1.02,.61-.52,.93-1.07,1.34-1.75,.28-.48,.42-.72,.49-1.08,.11-.59,0-1.11,.18-1.18,.07-.03,.15,.03,.24,.09,.32,.23,.49,.7,.46,1.11-.01,.21-.07,.26-.05,.47,.02,.24,.09,.25,.1,.5,.01,.17,.02,.33-.04,.52-.04,.11-.08,.17-.05,.24,.04,.08,.17,.1,.25,.1,.25-.02,.42-.29,.48-.37,.06-.1,.14-.26,.19-.64,.03-.25,.08-.58,.01-1-.04-.29-.13-.61-.42-1.15-.43-.82-.91-1.38-.98-1.47-1.41-1.62-2.53-2.61-2.53-2.61-1.5-1.32-2.26-1.98-3.33-2.78-1.47-1.1-8.25-6.01-8.8-6.27-.04-.01-.2-.09-.26-.24-.02-.08-.02-.18,.01-.22,.16-.22,1.28,.39,1.36,.43,3.3,1.82,4.95,2.73,5.59,3.18,2.71,1.91,4.06,2.86,4.46,3.37,.25,.3,.86,.73,2.08,1.58,.06,.04,.2,.14,.28,.09,.14-.1-.08-.65-.13-.78-.17-.42-.38-.77-.83-1.32-.51-.63-.78-.96-1.25-1.34-.53-.42-1.05-.69-1.1-.72-.54-.28-.7-.26-1.02-.52-.2-.17-.57-.49-.66-.97-.07-.41,.13-.56-.01-.96-.05-.14-.09-.14-.3-.52-.17-.31-.27-.52-.31-.6-.34-.65-1.34-1.41-1.83-1.77-.61-.44-1.05-.77-1.72-1.16-.75-.44-1.46-.97-2.25-1.33-.03-.01-.3-.14-.56-.4-.06-.07-.35-.35-.29-.46,.08-.14,.74,.12,.93,.19,3.09,1.2,6.5,3.93,6.5,3.93,2.89,2.32,2.27,2.3,3.35,2.94,.43,.26,1.52,.87,1.65,1.67,.03,.17,.03,.48,.25,.75,.24,.3,.6,.38,.57,.52-.02,.12-.3,.22-.3,.22-.17-.09-.4-.23-.65-.42-.21-.16-.35-.26-.49-.44-.25-.3-.16-.4-.39-.72-.3-.44-.71-.62-.85-.68-.2-.09-.48-.21-.57-.11-.14,.17,.52,.97,.75,1.26,.57,.69,.74,.71,1.24,1.29,.61,.72,.97,1.41,1.06,1.58,.29,.57,.71,1.08,.91,1.7,.02,.07,.09,.3,.24,.33,.11,.03,.23-.07,.28-.12,.09-.07,.05-.41,.2-.86,.1-.32,.23-.18,.27-.18,.16-.04,1.71,3.92,1.72,3.99,2.29,7.62,1.8,9.56,1.8,9.56,.2,3.29-.05,5.57-.14,6.26-.19,1.5-.44,2.61-.65,3.53"></path><path class="cls-7" d="M145.5,126.88c2.12-.41,2.31-.28,3.76-.88,.64-.27,1.39-.5,2.05-.3,.26,.08,.31,.09,.52,.38,.8,1.06,.78,1.66,1.63,3.45,.33,.69,.62,1.41,.94,2.11,.22,.48,.38,.83,.24,1.09-.21,.39-.9,.52-1.19,.5-2.87-.2-.59,.25-5.52-.29-1.61-.17-2.43-.07-4.47-.44-2.72-.49-2.01-.54-3.93-.84,0,0-1.87-.47-4.19-1.43-.2-.08-.66-.28-.64-.46,.02-.17,.43-.25,.8-.33,.71-.16,1.51-.54,2.22-.71,2.24-.55,1.91-.65,3.31-.9,1.33-.24,1.13-.25,2.29-.56,.96-.26,1.07-.18,2.19-.39"></path><path class="cls-7" d="M103.21,78.4c.65,.83,1.53,1.91,2.64,3.12,2.43,2.66,4.54,4.43,5.25,5.02,.68,.56,2.46,1.99,4.93,3.57,.81,.51,1.74,1.06,1.74,1.06,0,0,1.07-4.04,1.93-4.27,.6-.16-.28-1.54-.8-3.05-.4-1.17,.35-3.45,.74-4.4,1.04-2.46,2.39-3.19,2.09-3.58-.24-.3-1.38,.89-3.76,.94-1.37,.03-3.08,.12-3.54-.55-.56-.82,.48-1.83,.9-2.12,.59-.4,1.08-.69,2.04-.96,2.1-.6,1.25-.39,1.85-.48,.82-.12,1.05-.45,2.68-.5,.82-.02,1.52-.2,1.74-.55,.03-.04,.35-.91,.06-1.21-.29-.3-.91-.04-1.51,.19-1.22,.47-2.49,.8-3.69,1.32-2.14,.92-1.92,.56-4.51,1.62-1.36,.56-1.26,.59-3.56,1.58-1.69,.73-1.98,.81-3.29,1.38-.93,.4-2.3,1.02-3.96,1.85"></path><path class="cls-7" d="M127.16,72.42c-.18,.25-.38,.59-.5,.79-.12,.21-.23,.51-.45,1.1-.06,.16-.13,.36-.09,.6,.01,.09,.04,.27,.17,.35,.16,.1,.39-.03,.53-.1,.39-.2,.85-.21,1.27-.35,.71-.23,.9-.18,2.82-.57,.79-.16,2.65-.29,2.89-.3,2.18-.12,3.55-.48,6.48-.16,2.01,.22,3.47,.56,5.89,1.12,1.59,.37,2.38,.55,2.63,.71,.13,.08,.67,.42,.83,.26,.52-.49-1.04-1.44-1.29-1.52-.31-.11-1.8-.43-2.02-.47-.79-.14-2.96-.65-4.63-.74-1.81-.09-1.91-.17-3.04-.22-3.29-.14-3.92,.48-7.25,.57-.03,0-2.26,.22-3.1,.5-.04,.01-.64,.1-.81,.04-.12-.05-.17-.02-.18-.14-.01-.24,.55-1.1,.71-1.21,.69-.49,.6-.65,1-.92,.89-.59,1.34-.49,1.35-.71,0-.06,.31-.14,.21-.24-.16-.18-.75-.25-1.11-.17-.91,.2-.85,.02-1.88,.26-.86,.2-.63,.26-.98,.31-.07,0-.25,.03-.33,.15-.05,.08-.07,.19-.02,.27,.06,.09,.18,.1,.29,.11,.3,.02,.39-.11,.61-.04,.04,.01,.19,.06,.22,.17,.02,.06,0,.11-.06,.22-.09,.19-.14,.29-.19,.36"></path><path class="cls-8" d="M100.49,137.39c-.33-.16,.7,4.28,1.95,5.83,.33,.41,.75,.44,.75,.44,.34,.07,.52-.03,.99-.04,.44-.01,.74,.08,.93,.11,.98,.2,2.56-.16,3.23-.31,.8-.18,2.69-.6,3.92-1.54,.56-.43,.89-.89,1.07-1.14,.08-.11,.47-.66,.38-.75-.06-.06-.29,.09-.36,.14-.93,.61-1.72,1.23-2.86,1.7-.41,.17-1.76,.81-3.99,1.09-.35,.04-1.46,.33-2.56,.06-.2-.05-.3-.05-.65-.28-.61-.41-1.47-2.51-1.6-2.73-.87-1.43-.71-2.33-1.19-2.58"></path><path class="cls-8" d="M100.8,134.28c-.13-.23,.21-.7,.5-.96,.08-.07,.37-.32,.83-.42,.19-.04,.28-.03,.92,0,.68,.02,.52,0,.94,.02,.62,.03,.93,.04,1.32,.08,.63,.07,1.1,.18,1.36,.24,.59,.15,.88,.27,1.02,.34,.13,.06,.34,.16,.57,.33,.11,.08,.34,.25,.8,.79,.35,.41,.53,.62,.67,.87,.15,.26,.09,.23,.5,1.27,.2,.52,.3,.75,.31,1.11,0,.35-.08,.54-.12,.62-.14,.26-.36,.4-.45,.45-.22,.13-.27,.07-.6,.21-.24,.11-.26,.16-.48,.26-.3,.14-.45,.22-.59,.18-.17-.04-.25-.19-.39-.39-.52-.82-.41-.54-.63-.95-.28-.52-.44-.95-.58-1.31-.26-.7-.39-1.05-.41-1.22-.02-.15-.02-.31-.14-.45-.13-.16-.33-.2-.67-.26-.5-.08-.75-.12-.9-.14-.33-.03-.68-.08-1.4-.19-1.01-.14-.79-.14-1.13-.18-.24-.02-.47-.07-.92-.17-.21-.05-.29-.07-.33-.14"></path><path class="cls-8" d="M110.12,130.79c.03-.16,.96,0,1.69-.01,.54,0,1.29-.27,2.76-.79,.95-.34,1.93-.62,2.87-.99,0,0,.31-.12,1.25-.26,.31-.05,.5-.06,.68,.04,.3,.18,.33,.62,.36,.76,.37,1.64,2.59,3.59,2.49,3.94-.09,.32-.6,.33-.76,.81-.08,.24-.04,.3-.22,.48-.02,.02-.2,.2-.38,.15-.15-.04-.2-.2-.38-.64-.1-.24-.25-.61-.42-.95-.18-.36-.21-.35-.35-.63-.05-.1-.16-.34-.33-.97-.25-.88-.19-.95-.37-1.34-.14-.3-.27-.57-.57-.76-.34-.21-.66-.08-.78-.07-.35,.03-.44,.08-1.05,.4-.64,.34-.8,.29-1.12,.59-.18,.17-.41,.38-.43,.69,0,.16,.08,.36,.27,.77,.09,.19,.15,.32,.25,.5,.1,.16,0,.46,1.9,3.86,.05,.05-.27,.28-.69,.23-.04,0-.46,.04-.77-.21-.25-.21-.23-.54-.36-.76-.46-.79-.44-.71-.79-1.68-.38-1.03-.05-.14-.69-1.97-.04-.1-.37-.34-.72-.26-.16,.03-.24,.03-.42,.12-.26,.12-.4,0-1.11-.11-.34-.05-.67-.13-1.01-.19-.07-.01-.21-.04-.34-.14-.08-.07-.1-.13-.2-.28-.18-.26-.29-.29-.27-.35"></path><path class="cls-8" d="M94.36,122.74c.22,.02-.06,.76-.06,1.07,0,.29-.17,.6-.28,.78-.34,.57-.23,.75-.5,1.41-.36,.91-.32,.83-.82,2.41-.4,1.24-.05,.77-.38,2-.04,.13,.06,.5,.06,.5,0,0,.23,.25,1.29,.45,.35,.06,.6,.1,1.35,.14,.72,.04,1.09-.08,1.1,0,.01,.1-.4,.23-.51,.29-1.18,.58-2.96,.25-3.76,0-.25-.08-.42-.32-.41-.6,.02-.43,.13-1.25,.57-2.65,1.04-3.29,2.03-5.81,2.34-5.79"></path><path class="cls-12" d="M124.29,106.52s0,.05-.02,.12c-.23,.98-1.79,7.54-2.39,8.09-1.43,1.36-1.49,1.17-2.83,1.85-3.93,2-5.91,2.62-5.91,2.62-3.7,1.16-9.58,2.31-13.48,1.69-.47-.07-.43-.73-.67-1.6-.23-.81-.27-1.49-.27-1.88-.01-.95,.17-2.16,.46-2.18,.23,0,.23,.7,.86,1.15,.44,.3,.93,.3,1.24,.3,.5-.01,.7-.15,1.99-.63,.75-.28,1.12-.42,1.58-.54,.48-.13,.4-.08,1.66-.35,0,0,.46-.1,1.46-.26,.55-.09,.86-.12,1.12,.07,.14,.09,.35,.32,.42,.4-.93,.24-1.67,.57-2.16,.84-.78,.41-1.28,.67-1.73,1.23-.21,.26-.78,1.19-.79,1.2,1.52,.67,2.36,.6,3.54,.51,.58-.04,.98-.45,1.02-.49,.75-.52,1.09-1.24,1.22-1.57,.24-.6,.04-1.05,.29-.94,1.34,.65,2.37,.72,3.62,.52,1.88-.3,3.93-.89,5.11-2.55,.55-.8,1.19-1.92,.87-2.3-.2-.24-.74-.13-1.21-.04-.6,.11-1.18,.4-1.36,.49-.25,.12-.39,.18-.66,.3-.33,.15-.48,.2-.68,.19-.07,0-.26-.01-.45-.12-.35-.2-.45-.63-.5-.78-.4-1.53-1.47-2.64-1.9-5.93,0,0-.4-2.99,.22-6.02,.11-.53,.29-.81,.38-1.52,.01-.1,.03-.24,.08-.24,.09-.01,.4,.68,.37,1.43-.01,.2-.03,.38,.06,.44,.09,.05,.22-.06,.55-.27,.58-.37,.54-.29,.67-.42,.32-.29,.44-.64,.52-.85,.08-.21,.17-.46,.15-.73-.02-.44-.32-.63-1.23-1.5-.86-.82-1.13-1.17-1.52-1.1-.19,.03-.31,.15-.36,.2-.36,.35-1.41,3.05-1.3,8.67,.04,2.28,.11,2.74,.54,3.71,.71,1.61,1.19,3.34,2.07,4.87,.04,.07,.15,.27,.08,.43-.19,.44-1.62,.2-2.17,.08-2.94-.69-4.65-3.78-4.81-4.09-.79-1.5-.96-2.81-1.11-4.09-.08-.62-.54-4.81,1.32-9,.41-.9,1.44-3,1.57-3.26-.25,.33-3.49,4.62-4,10.44-.12,1.42-.46,4.3-.23,6.02,.09,.63,2.14,3.7,3.09,4.71,0,0-.89-.11-1.13-.27-.97-.63-2.81-3.71-2.81-3.71,0,0-1.52,1.05-2.05,1.36-.75,.43-2.79,1.77-3.04,1.94,.21-.26,1.88-2.27,2.5-2.92,.71-.74,3.02-2.79,3.02-2.79,0,0,.06-5.55,.25-7.4,.33-3.02,2.72-8.09,2.72-8.09l-3.25-3.88-4.54-5.52c4.69,2.97,10.25,7.17,15.75,12.99,1.86,1.96,4.31,4.8,7.16,8.74,.43,.6,.82,1.22,1.13,1.91l-.06,.28"></path><path class="cls-8" d="M122.55,122.58c-.31,.64-.7,1.49-1.64,2.15-8.11,5.67-20.03,6.47-20.03,6.47,0,0,1-.37,3.01-1.07,4.09-1.41,4.72-1.51,6.57-2.17,1.9-.68,5.53-2.09,9.16-4.66,.42-.31,3.32-2.38,2.94-3.37-.03-.09-.12-.25-.27-.38-.6-.52-1.56-.02-1.77-.38-.09-.15,0-.36,.08-.47,.24-.37,.8-.17,1.46-.31,.83-.17,1.58-.81,1.91-1.55,.31-.67,.23-1.32,.16-1.85-.09-.72-.35-1.32-.46-1.57-.21-.47-.15-.36-.21-.58-.27-.92,1.03-2.56,1.29-3.75,.11-.54,0-1.17-.14-1.67h.19c.15,.55,.25,1.17,.29,1.85,.26,5.66-.98,10-2.54,13.32"></path><path class="cls-8" d="M96.38,121.18s-.64,4.02-.95,5.22c-.23,.9-1.21,3.2-1.21,3.2,0,0,4.44,1,4.93-.07,.2-.44-.17-.71-.08-1.72,.11-1.32,.86-2.24,.68-2.37-.1-.07-.32,.2-.99,.42-.45,.15-.54,.09-.56,.06-.18-.17,.12-.79,.22-.99,.84-1.69,2.17-2.25,2.02-2.69-.1-.29-.7-.16-1.94-.42-1.43-.3-2.13-.63-2.13-.63"></path><path class="cls-8" d="M102.79,121.71s2.46,1.37,2.73,2.06c.2,.51,1.11,.08,1.92-.23,3.3-1.28,5.05-2.11,5.05-2.11,0,0,1.51-.71,3.94-1.6,0,0,.8-.29,2.22-.26,.34,0,.51,.03,.54,.12,.09,.26-1.05,.86-1.82,1.28-1.65,.89-3.27,1.81-4.91,2.7,0,0-1.8,.97-4.57,2.14-.48,.2-.79,.31-1.19,.31-.6,0-.85-.1-1.16,.09-.31,.18-.16,.34-.52,.79-.19,.24-.48,.39-1.07,.71-.35,.19-.53,.28-.8,.37-.15,.05-1.17,.16-1.17,.16l.81-6.53Z"></path></g><g id="Drapeau"><g><g><path class="cls-5" d="M121.6,221.55c-.05,.14-.1,.28-.15,.42-.83,2.55-.57,5.01,.44,7.41,.9,2.14,2.22,3.96,3.79,5.58,.11,.12,.24,.19,.36,.23v-.03c.13,.04,.26,.06,.41,.04,2.24-.27,4.42-.86,6.46-1.96,2.29-1.23,4.04-2.98,5-5.48,.05-.14,.1-.28,.15-.42,.03-.1,.06-.2,.09-.3,.49-1.6,1.02-3.19,1.52-4.79,.39-1.26,.74-2.53,1.1-3.8,.06-.22,.14-.42-.2-.48-1.37-.24-2.7-.66-3.93-1.29-1.15-.59-2.19-1.35-2.8-2.6-.07-.13-.14-.22-.23-.27v.03s-.03,0-.04,0c-.1-.02-.21,0-.35,.07-1.26,.59-2.55,.52-3.81,.25-1.36-.28-2.65-.79-3.87-1.47-.3-.17-.37,.03-.46,.24-.51,1.21-1.04,2.42-1.53,3.65-.57,1.42-1.1,2.86-1.67,4.28-.06,.15-.12,.31-.18,.46-.03,.08-.06,.15-.09,.23"></path><polygon class="cls-1" points="131.55 223.67 134.55 224.73 133.64 227.3 130.64 226.24 129.58 229.24 127.01 228.33 128.07 225.33 125.07 224.27 125.98 221.69 128.98 222.76 130.04 219.76 132.61 220.67 131.55 223.67"></polygon><path class="cls-10" d="M110.37,214.05v.04s0,0-.02,0v-.03s.01-.01,.02-.02"></path><path class="cls-3" d="M110.37,214.05v.04s0,0-.02,0v-.03s.01-.01,.02-.02Z"></path><path class="cls-10" d="M122.19,229.46c-.87,2.15-2.18,3.97-3.72,5.61-.11,.11-.23,.19-.36,.24v-.03c-.13,.04-.26,.06-.41,.04-2.24-.25-4.41-.8-6.46-1.88-2.51-1.32-4.39-3.26-5.29-6.13-.5-1.59-1.06-3.17-1.56-4.76-.4-1.25-.76-2.51-1.14-3.77-.07-.22-.14-.41,.2-.48,1.37-.26,2.68-.69,3.91-1.33,1.14-.6,2.17-1.36,2.77-2.62,.06-.13,.14-.22,.22-.27v.03s.03,0,.05,0c.1-.02,.21,0,.35,.06,1.26,.57,2.54,.49,3.8,.21,1.36-.3,2.64-.82,3.85-1.5,.3-.17,.37,.03,.46,.24,.52,1.21,1.06,2.41,1.56,3.62,.64,1.54,1.23,3.1,1.88,4.64,1.16,2.78,.98,5.47-.09,8.1"></path><path class="cls-3" d="M122.19,229.46c-.87,2.15-2.18,3.97-3.72,5.61-.11,.11-.23,.19-.36,.24v-.03c-.13,.04-.26,.06-.41,.04-2.24-.25-4.41-.8-6.46-1.88-2.51-1.32-4.39-3.26-5.29-6.13-.5-1.59-1.06-3.17-1.56-4.76-.4-1.25-.76-2.51-1.14-3.77-.07-.22-.14-.41,.2-.48,1.37-.26,2.68-.69,3.91-1.33,1.14-.6,2.17-1.36,2.77-2.62,.06-.13,.14-.22,.22-.27v.03s.03,0,.05,0c.1-.02,.21,0,.35,.06,1.26,.57,2.54,.49,3.8,.21,1.36-.3,2.64-.82,3.85-1.5,.3-.17,.37,.03,.46,.24,.52,1.21,1.06,2.41,1.56,3.62,.64,1.54,1.23,3.1,1.88,4.64,1.16,2.78,.98,5.47-.09,8.1Z"></path></g><path class="cls-1" d="M122.21,229.52c-.87,2.15-2.18,3.97-3.72,5.61-.11,.11-.23,.19-.36,.24v-.03c-.13,.04-.26,.06-.41,.04-2.24-.25-4.41-.8-6.46-1.88-2.51-1.32-4.39-3.26-5.29-6.13-.05-.14-.09-.29-.14-.43l16.29-5.96c.06,.15,.12,.3,.19,.45,1.16,2.78,.98,5.47-.09,8.1"></path></g><path class="cls-3" d="M122.21,229.52c-.87,2.15-2.18,3.97-3.72,5.61-.11,.11-.23,.19-.36,.24v-.03c-.13,.04-.26,.06-.41,.04-2.24-.25-4.41-.8-6.46-1.88-2.51-1.32-4.39-3.26-5.29-6.13-.05-.14-.09-.29-.14-.43l16.29-5.96c.06,.15,.12,.3,.19,.45,1.16,2.78,.98,5.47-.09,8.1Z"></path></g></g></g></svg>